<?xml version="1.0" encoding="utf-8"?>
<svg xmlns="http://www.w3.org/2000/svg" xmlns:xlink="http://www.w3.org/1999/xlink" style="margin: auto; background: none; display: block; z-index: 1; position: relative; shape-rendering: auto;" width="290" height="230" preserveAspectRatio="xMidYMid" viewBox="0 0 290 230">
<g transform=""><g transform="translate(15.804053992686676,49.17137753776571) scale(100)" opacity="0.67">
  <path d="M1.2035 0 C1.2035 0.2754999999999999 1.6069620975203 0.6096600012573871 1.4692120975203002 0.8482499999999998 S0.8403399987426129 0.9045115734545719 0.6017500000000001 1.042261573454572 S0.2755 1.6965 1.0388066473767423e-16 1.6965 S-0.363160001257387 1.1800115734545717 -0.6017499999999998 1.042261573454572 S-1.3314620975202998 1.0868399987426132 -1.4692120975202998 0.8482500000000005 S-1.2035 0.2755000000000001 -1.2035 1.4738624227738397e-16 S-1.6069620975203003 -0.6096600012573867 -1.4692120975203005 -0.8482499999999995 S-0.8403399987426132 -0.9045115734545717 -0.6017500000000006 -1.0422615734545717 S-0.27550000000000024 -1.6965 -3.1164199421302266e-16 -1.6965 S0.36316000125738634 -1.1800115734545722 0.6017499999999992 -1.0422615734545724 S1.3314620975202995 -1.0868399987426134 1.4692120975202996 -0.8482500000000007 S1.2035 -0.2755000000000002 1.2035 -2.9477248455476794e-16" fill="#060068" stroke-width="0" transform="rotate(8.13593)">
    <animateTransform attributeName="transform" type="rotate" dur="20s" repeatCount="indefinite" values="0;60"></animateTransform>
  </path>
</g><g transform="translate(-10.035135208775984,36.00565304531885) scale(100)" opacity="0.67">
  <path d="M1.4442 0 C1.4442 0.3305999999999999 1.9283545170243603 0.7315920015088644 1.7630545170243603 1.0178999999999998 S1.0084079984911354 1.0854138881454862 0.7221000000000001 1.2507138881454862 S0.3306 2.0358 1.2465679768520908e-16 2.0358 S-0.43579200150886427 1.416013888145486 -0.7220999999999996 1.2507138881454862 S-1.5977545170243599 1.304207998491136 -1.76305451702436 1.0179000000000007 S-1.4442 0.33060000000000006 -1.4442 1.7686349073286075e-16 S-1.9283545170243603 -0.7315920015088639 -1.7630545170243606 -1.0178999999999994 S-1.0084079984911358 -1.085413888145486 -0.7221000000000006 -1.250713888145486 S-0.3306000000000003 -2.0358 -3.7397039305562725e-16 -2.0358 S0.4357920015088635 -1.4160138881454867 0.722099999999999 -1.250713888145487 S1.5977545170243597 -1.3042079984911361 1.7630545170243597 -1.017900000000001 S1.4442 -0.3306000000000002 1.4442 -3.537269814657215e-16" fill="#260184" stroke-width="0" transform="rotate(16.2719)">
    <animateTransform attributeName="transform" type="rotate" dur="10s" repeatCount="indefinite" values="0;60"></animateTransform>
  </path>
</g><g transform="translate(-72.0491892922864,4.407914263446386) scale(100)" opacity="0.67">
  <path d="M2.02188 0 C2.02188 0.46283999999999986 2.699696323834104 1.0242288021124102 2.468276323834104 1.4250599999999995 S1.4117711978875895 1.5195794434036807 1.0109400000000002 1.7509994434036806 S0.46284000000000003 2.8501199999999995 1.7451951675929268e-16 2.8501199999999995 S-0.61010880211241 1.9824194434036806 -1.0109399999999995 1.7509994434036809 S-2.2368563238341035 1.82589119788759 -2.4682763238341034 1.4250600000000007 S-2.02188 0.4628400000000001 -2.02188 2.4760888702600503e-16 S-2.6996963238341043 -1.0242288021124093 -2.4682763238341043 -1.4250599999999989 S-1.4117711978875902 -1.5195794434036802 -1.0109400000000008 -1.7509994434036804 S-0.46284000000000036 -2.8501199999999995 -5.235585502778781e-16 -2.8501199999999995 S0.610108802112409 -1.982419443403681 1.0109399999999986 -1.7509994434036815 S2.236856323834103 -1.8258911978875905 2.468276323834103 -1.425060000000001 S2.02188 -0.46284000000000036 2.02188 -4.952177740520101e-16" fill="#4100a0" stroke-width="0" transform="rotate(24.4078)">
    <animateTransform attributeName="transform" type="rotate" dur="6.666666666666666s" repeatCount="indefinite" values="0;60"></animateTransform>
  </path>
</g></g>
</svg>